<svg width="8" height="14" viewBox="0 0 8 14" fill="none" xmlns="http://www.w3.org/2000/svg">
<path fill-rule="evenodd" clip-rule="evenodd" d="M7.35408 0.645978C7.30764 0.599415 7.25246 0.562472 7.19172 0.537266C7.13097 0.512059 7.06585 0.499084 7.00008 0.499084C6.93432 0.499084 6.86919 0.512059 6.80845 0.537266C6.7477 0.562472 6.69253 0.599415 6.64608 0.645978L0.646083 6.64598C0.59952 6.69242 0.562577 6.7476 0.537371 6.80834C0.512164 6.86909 0.499189 6.93421 0.499189 6.99998C0.499189 7.06575 0.512164 7.13087 0.537371 7.19161C0.562577 7.25236 0.59952 7.30753 0.646083 7.35398L6.64608 13.354C6.73997 13.4479 6.86731 13.5006 7.00008 13.5006C7.13286 13.5006 7.2602 13.4479 7.35408 13.354C7.44797 13.2601 7.50071 13.1328 7.50071 13C7.50071 12.8672 7.44797 12.7399 7.35408 12.646L1.70708 6.99998L7.35408 1.35398C7.40065 1.30753 7.43759 1.25236 7.4628 1.19161C7.488 1.13087 7.50098 1.06575 7.50098 0.999978C7.50098 0.934211 7.488 0.86909 7.4628 0.808345C7.43759 0.7476 7.40065 0.692424 7.35408 0.645978Z" fill="white"/>
</svg>
