<svg width="23" height="21" viewBox="0 0 23 21" fill="none" xmlns="http://www.w3.org/2000/svg">
<path d="M22.9952 7.02126C22.9944 7.00609 22.9926 6.99098 22.99 6.976C22.9867 6.96005 22.9821 6.94442 22.9763 6.92926C22.9706 6.91196 22.9636 6.89509 22.9555 6.87881C22.9531 6.87074 22.9502 6.86281 22.947 6.85507C22.9444 6.85025 22.9392 6.84802 22.9362 6.8432C22.9157 6.81612 22.8925 6.79127 22.8668 6.76901C22.8559 6.75881 22.8442 6.74935 22.832 6.74082C22.8271 6.73785 22.8249 6.73266 22.8201 6.73006L11.6916 0.0529647C11.5741 -0.0176549 11.4271 -0.0176549 11.3095 0.0529647L0.181024 6.73006C0.176572 6.73266 0.174346 6.73748 0.169895 6.74045C0.156773 6.74912 0.144392 6.75876 0.1328 6.76938C0.118194 6.78195 0.104561 6.79558 0.0919956 6.81019C0.0818872 6.82122 0.0724743 6.83286 0.0638034 6.84506C0.0608358 6.84988 0.0556425 6.8521 0.0530458 6.85693C0.0497536 6.86467 0.0469251 6.8726 0.044514 6.88067C0.0363531 6.89694 0.0293978 6.91382 0.0237408 6.93112C0.0178983 6.94628 0.0133078 6.9619 0.0100156 6.97786C0.00737263 6.99283 0.00561062 7.00795 0.00482235 7.02311C0.00482235 7.03164 0 7.03906 0 7.04797V18.9165C0 19.5311 0.498232 20.0294 1.11285 20.0294H21.8871C22.5018 20.0294 23 19.5311 23 18.9165V7.04611C23 7.03721 22.9956 7.02979 22.9952 7.02126ZM11.5006 0.801541L21.9079 7.04611L16.1374 10.5086L11.6916 7.84106C11.5741 7.77044 11.4271 7.77044 11.3095 7.84106L6.86368 10.5086L1.09319 7.04611L11.5006 0.801541ZM0.743012 7.70121L6.14256 10.9411L0.743012 14.181V7.70121ZM22.2581 18.9165C22.2581 19.1214 22.092 19.2875 21.8871 19.2875H1.11396C0.909105 19.2875 0.743012 19.1214 0.743012 18.9165V15.046L11.5006 8.59149L22.2581 15.046V18.9165ZM22.2581 14.181L16.8586 10.9411L22.2581 7.70121V14.181Z" fill="white"/>
<path d="M2.59772 17.8041H2.22677V16.6913C2.22677 16.4864 2.06067 16.3203 1.85581 16.3203C1.65096 16.3203 1.48486 16.4864 1.48486 16.6913V18.1751C1.48486 18.3799 1.65096 18.546 1.85581 18.546H2.59772C2.80257 18.546 2.96867 18.3799 2.96867 18.1751C2.96867 17.9702 2.80257 17.8041 2.59772 17.8041Z" fill="white"/>
<path d="M4.82379 17.8037H4.08189C3.87703 17.8037 3.71094 17.9698 3.71094 18.1747C3.71094 18.3795 3.87703 18.5456 4.08189 18.5456H4.82379C5.02864 18.5456 5.19474 18.3795 5.19474 18.1747C5.19474 17.9698 5.02864 17.8037 4.82379 17.8037Z" fill="white"/>
</svg>
