<svg width="23" height="23" viewBox="0 0 23 23" fill="none" xmlns="http://www.w3.org/2000/svg">
<path d="M22.3965 17.7425L17.7412 14.6379C17.1504 14.2471 16.3585 14.3757 15.9218 14.9334L14.5657 16.6769C14.3915 16.9067 14.0747 16.9734 13.8226 16.8333L13.5646 16.6911C12.7095 16.225 11.6456 15.6448 9.50189 13.5004C7.35822 11.3559 6.7768 10.2912 6.31071 9.43764L6.16927 9.17969C6.0273 8.92762 6.09269 8.60949 6.32257 8.43383L8.06492 7.07819C8.62241 6.64139 8.75118 5.84972 8.36082 5.25877L5.25628 0.603484C4.85622 0.00170944 4.05359 -0.17894 3.43425 0.193363L1.48758 1.36273C0.875922 1.72232 0.427174 2.30469 0.235431 2.98781C-0.465561 5.54196 0.0617886 9.95003 6.55527 16.4443C11.7207 21.6093 15.5661 22.9983 18.2092 22.9983C18.8175 23.0009 19.4234 22.9218 20.0106 22.763C20.6939 22.5715 21.2763 22.1227 21.6357 21.5109L22.8062 19.5653C23.1791 18.9459 22.9985 18.1427 22.3965 17.7425ZM22.1458 19.1721L20.978 21.1187C20.7199 21.5604 20.301 21.885 19.809 22.0248C17.451 22.6722 13.3316 22.136 7.09758 15.902C0.863571 9.66796 0.327418 5.54888 0.974781 3.1906C1.11474 2.69797 1.43983 2.27851 1.88198 2.02007L3.82865 0.852224C4.09738 0.690529 4.44574 0.768907 4.61934 1.03004L6.30577 3.56196L7.72123 5.68492C7.89074 5.94126 7.83504 6.28481 7.59322 6.47449L5.85046 7.83012C5.3201 8.23566 5.16865 8.96944 5.49518 9.55181L5.63357 9.80325C6.12341 10.7016 6.73242 11.8193 8.95581 14.0423C11.1792 16.2653 12.2965 16.8743 13.1945 17.3641L13.4463 17.5029C14.0286 17.8294 14.7624 17.678 15.1679 17.1476L16.5236 15.4049C16.7133 15.1632 17.0567 15.1075 17.3131 15.2768L21.968 18.3814C22.2293 18.5548 22.3077 18.9034 22.1458 19.1721Z" fill="white"/>
<path d="M13.0324 3.83342C16.6293 3.83742 19.5441 6.75228 19.5482 10.3491C19.5482 10.5608 19.7197 10.7324 19.9314 10.7324C20.1431 10.7324 20.3147 10.5608 20.3147 10.3491C20.3102 6.32909 17.0525 3.0713 13.0324 3.06689C12.8207 3.06689 12.6492 3.23847 12.6492 3.45016C12.6492 3.66184 12.8207 3.83342 13.0324 3.83342Z" fill="white"/>
<path d="M13.0324 6.13322C15.3598 6.13596 17.2457 8.02196 17.2485 10.3493C17.2485 10.561 17.4201 10.7325 17.6318 10.7325C17.8434 10.7325 18.015 10.561 18.015 10.3493C18.0118 7.59876 15.7829 5.36984 13.0324 5.3667C12.8207 5.3667 12.6492 5.53828 12.6492 5.74996C12.6492 5.96165 12.8207 6.13322 13.0324 6.13322Z" fill="white"/>
<path d="M13.0324 8.43303C14.0903 8.43428 14.9475 9.29154 14.9488 10.3494C14.9488 10.5611 15.1204 10.7327 15.3321 10.7327C15.5437 10.7327 15.7154 10.5611 15.7154 10.3494C15.7136 8.86839 14.5135 7.66817 13.0324 7.6665C12.8207 7.6665 12.6492 7.83808 12.6492 8.04977C12.6492 8.26145 12.8207 8.43303 13.0324 8.43303Z" fill="white"/>
</svg>
