<svg width="20" height="18" viewBox="0 0 20 18" fill="none" xmlns="http://www.w3.org/2000/svg">
<path d="M19.9958 6.39694C19.9951 6.38376 19.9936 6.37062 19.9913 6.35759C19.9884 6.34372 19.9844 6.33013 19.9794 6.31695C19.9744 6.30191 19.9684 6.28723 19.9613 6.27308C19.9592 6.26606 19.9567 6.25917 19.9539 6.25244C19.9516 6.24824 19.9471 6.24631 19.9445 6.24211C19.9267 6.21857 19.9065 6.19695 19.8842 6.1776C19.8747 6.16873 19.8646 6.1605 19.8539 6.15308C19.8497 6.1505 19.8477 6.14599 19.8436 6.14373L10.1666 0.33756C10.0644 0.276152 9.93658 0.276152 9.83436 0.33756L0.157412 6.14373C0.153541 6.14599 0.151606 6.15018 0.147735 6.15276C0.136324 6.1603 0.125558 6.16869 0.115478 6.17792C0.102777 6.18885 0.090923 6.2007 0.0799961 6.2134C0.0712062 6.223 0.0630211 6.23312 0.0554812 6.24373C0.0529007 6.24792 0.0483848 6.24985 0.0461268 6.25405C0.043264 6.26078 0.0408045 6.26768 0.0387078 6.27469C0.0316114 6.28884 0.0255633 6.30352 0.0206442 6.31856C0.0155638 6.33175 0.011572 6.34533 0.00870926 6.3592C0.00641098 6.37223 0.0048788 6.38537 0.00419335 6.39856C0.00419335 6.40598 0 6.41243 0 6.42017V16.7406C0 17.2751 0.433245 17.7083 0.967695 17.7083H19.0323C19.5668 17.7083 20 17.2751 20 16.7406V6.41856C20 6.41081 19.9961 6.40436 19.9958 6.39694ZM10.0005 0.988496L19.0504 6.41856L14.0325 9.42938L10.1666 7.10981C10.0644 7.0484 9.93658 7.0484 9.83436 7.10981L5.96842 9.42938L0.950599 6.41856L10.0005 0.988496ZM0.646098 6.98821L5.34135 9.80549L0.646098 12.6228V6.98821ZM19.3549 16.7406C19.3549 16.9188 19.2104 17.0632 19.0323 17.0632H0.968663C0.790526 17.0632 0.646098 16.9188 0.646098 16.7406V13.375L10.0005 7.76236L19.3549 13.375V16.7406ZM19.3549 12.6228L14.6596 9.80549L19.3549 6.98821V12.6228Z" fill="white"/>
<path d="M2.25896 15.7729H1.93639V14.8052C1.93639 14.6271 1.79196 14.4827 1.61383 14.4827C1.43569 14.4827 1.29126 14.6271 1.29126 14.8052V16.0955C1.29126 16.2736 1.43569 16.4181 1.61383 16.4181H2.25896C2.4371 16.4181 2.58152 16.2736 2.58152 16.0955C2.58152 15.9174 2.4371 15.7729 2.25896 15.7729Z" fill="white"/>
<path d="M4.1945 15.7729H3.54937C3.37124 15.7729 3.22681 15.9174 3.22681 16.0955C3.22681 16.2737 3.37124 16.4181 3.54937 16.4181H4.1945C4.37264 16.4181 4.51707 16.2737 4.51707 16.0955C4.51707 15.9174 4.37264 15.7729 4.1945 15.7729Z" fill="white"/>
</svg>
