<svg width="20" height="29" viewBox="0 0 20 29" fill="none" xmlns="http://www.w3.org/2000/svg">
<path d="M16.6045 3.26858L16.6045 3.2686C18.3212 4.90273 19.3031 7.27642 19.4735 9.73403C19.6439 12.1915 18.9997 14.6869 17.5245 16.559L17.5147 16.5714L17.5057 16.5844L10.0018 27.4534L2.48403 16.5683L2.47508 16.5553L2.46533 16.5429C0.996652 14.6793 0.355281 12.1881 0.527217 9.73235C0.699153 7.27655 1.6811 4.90276 3.39783 3.2686L3.39786 3.26858C5.28758 1.46949 7.36415 0.5 10.0019 0.5C12.6391 0.5 14.7147 1.46944 16.6045 3.26858ZM5.79359 9.83132C5.79359 12.1271 7.74803 13.9534 10.0981 13.9534C12.4482 13.9534 14.4026 12.1271 14.4026 9.83132C14.4026 7.53551 12.4482 5.70925 10.0981 5.70925C7.74803 5.70925 5.79359 7.53551 5.79359 9.83132Z" stroke="white"/>
</svg>
